<svg width="128" height="128" viewBox="0 0 128 128" fill="none" xmlns="http://www.w3.org/2000/svg">
<g clip-path="url(#clip0_11_32)">
<path d="M94.5334 102.8L84.9334 59.0667L103.6 40.4C111.6 32.4 114.267 21.7334 111.6 16.4C106.267 13.7334 95.6 16.4 87.6 24.4L68.9334 43.0667L25.2 33.4667C22.5334 32.9334 20.4 34 19.3334 36.1334L17.7334 38.8C16.6667 41.4667 17.2 44.1334 19.3334 45.7334L47.6 64.4L36.9334 80.4H20.9334L15.6 85.7334L31.6 96.4L42.2667 112.4L47.6 107.067V91.0667L63.6 80.4L82.2667 108.667C83.8667 110.8 86.5334 111.333 89.2 110.267L91.8667 109.2C94 107.6 95.0667 105.467 94.5334 102.8Z" stroke="#2B7FFF" stroke-width="10.6667" stroke-linecap="round" stroke-linejoin="round"/>
</g>
<defs>
<clipPath id="clip0_11_32">
<rect width="128" height="128" fill="white"/>
</clipPath>
</defs>
</svg>
